<?xml version="1.0" ?><svg style="enable-background:new 0 0 64 64;" version="1.1" viewBox="0 0 64 64" xml:space="preserve" xmlns="http://www.w3.org/2000/svg" xmlns:xlink="http://www.w3.org/1999/xlink"><style type="text/css">
	.st0{fill:#FFEEA9;}
	.st1{fill:#D32436;}
	.st2{fill:#8DD1D3;}
	.st3{fill:#330D00;}
	.st4{fill:none;stroke:#330D00;stroke-linecap:round;stroke-linejoin:round;stroke-miterlimit:10;}
</style><g id="_x34_0-Id_Card"/><g id="_x33_9-Formula"/><g id="_x33_8-Elbow"/><g id="_x33_7-Diploma"/><g id="_x33_6-Laptop"/><g id="_x33_5-Brush"/><g id="_x33_4-Baseball"/><g id="_x33_3-Student"/><g id="_x33_2-Highlighter"/><g id="_x33_1-Ruler"/><g id="_x33_0-Caliper"/><g id="_x32_9-Ruler_Elbow"/><g id="_x32_8-Abacus"/><g id="_x32_7-Id_Card"/><g id="_x32_6-Eraser"/><g id="_x32_5-Pencil"/><g id="_x32_4-Ink"/><g id="_x32_3-Graduation_Cap"/><g id="_x32_2-_Sling_Bag"/><g id="_x32_1-Rugby_Ball"/><g id="_x32_0-Clock"/><g id="_x31_9-Certificate"/><g id="_x31_8-Idea"/><g id="_x31_7-Bookshelf"><g><g><rect class="st2" height="46.3" width="13.2" x="5.5" y="16.6"/></g><g><rect class="st1" height="61.8" width="15.4" x="18.8" y="1.1"/></g><g><polygon class="st2" points="58.5,59.8 45.6,62.9 34.2,18.1 47.1,15    "/></g><g><g><path class="st3" d="M15.7,22.1H8.6c-0.6,0-1.1,0.5-1.1,1.1c0,0.6,0.5,1.1,1.1,1.1h7.1c0.6,0,1.1-0.5,1.1-1.1      C16.8,22.6,16.3,22.1,15.7,22.1z"/></g><g><path class="st3" d="M23,8.8H30c0.6,0,1.1-0.5,1.1-1.1S30.6,6.6,30,6.6H23c-0.6,0-1.1,0.5-1.1,1.1S22.3,8.8,23,8.8z"/></g><g><path class="st3" d="M23,57.4H30c0.6,0,1.1-0.5,1.1-1.1c0-0.6-0.5-1.1-1.1-1.1H23c-0.6,0-1.1,0.5-1.1,1.1      C21.8,56.9,22.3,57.4,23,57.4z"/></g><g><path class="st3" d="M15.7,55.2H8.6c-0.6,0-1.1,0.5-1.1,1.1c0,0.6,0.5,1.1,1.1,1.1h7.1c0.6,0,1.1-0.5,1.1-1.1      C16.8,55.7,16.3,55.2,15.7,55.2z"/></g><g><path class="st3" d="M59.6,59.5L48.1,14.7c-0.1-0.6-0.7-0.9-1.3-0.8l-11.5,2.8V1.1c0-0.6-0.5-1.1-1.1-1.1H18.8      c-0.6,0-1.1,0.5-1.1,1.1v14.3H5.5c-0.6,0-1.1,0.5-1.1,1.1v46.3c0,0.6,0.5,1.1,1.1,1.1h13.2h15.4c0.6,0,1.1-0.5,1.1-1.1v-36      l9.2,36.3c0.1,0.5,0.6,0.8,1.1,0.8c0.1,0,0.2,0,0.3,0l12.9-3.1c0.3-0.1,0.5-0.3,0.7-0.5C59.6,60.1,59.6,59.8,59.6,59.5z       M6.6,17.7h11v44.1h-11V17.7z M33.1,61.8H19.9V16.6V2.2h13.2V61.8z M46.4,61.6L35.6,18.9l10.7-2.6L57.1,59L46.4,61.6z"/></g><g><path class="st3" d="M45.3,21l-6.9,1.7c-0.6,0.1-1,0.7-0.8,1.3c0.1,0.5,0.6,0.8,1.1,0.8c0.1,0,0.2,0,0.3,0l6.9-1.7      c0.6-0.1,1-0.7,0.8-1.3S45.9,20.8,45.3,21z"/></g><g><path class="st3" d="M45.8,56c0.1,0.5,0.6,0.8,1.1,0.8c0.1,0,0.2,0,0.3,0l6.9-1.7c0.6-0.1,1-0.7,0.8-1.3      c-0.1-0.6-0.7-0.9-1.3-0.8l-6.9,1.7C46,54.9,45.6,55.5,45.8,56z"/></g></g></g></g><g id="_x31_6-Formula"/><g id="_x31_5-Bell"/><g id="_x31_4-Magnifying_Glass"/><g id="_x31_3-Calculator"/><g id="_x31_2-Eyeglasses"/><g id="_x31_1-Bus"/><g id="_x31_0-Trophy"/><g id="_x39_-Globe"/><g id="_x38_-Basket_Ball"/><g id="_x37_-Pen"/><g id="_x36_-Board"/><g id="_x35_-Bag"/><g id="_x34_-Exam"/><g id="_x33_-Book"/><g id="_x32_-Ruler"/><g id="_x31_-Building"/></svg>